<?xml version="1.0" standalone="no"?>
<!DOCTYPE svg PUBLIC "-//W3C//DTD SVG 20010904//EN"
 "http://www.w3.org/TR/2001/REC-SVG-20010904/DTD/svg10.dtd">
<svg version="1.0" xmlns="http://www.w3.org/2000/svg"
 width="180.000000pt" height="180.000000pt" viewBox="0 0 180.000000 180.000000"
 preserveAspectRatio="xMidYMid meet">
<metadata>
Created by potrace 1.16, written by Peter Selinger 2001-2019
</metadata>
<g transform="translate(0.000000,180.000000) scale(0.100000,-0.100000)"
fill="#000000" stroke="none">
<path d="M450 1405 c0 -3 15 -38 34 -78 68 -143 80 -191 80 -317 1 -69 -5
-133 -13 -160 -17 -58 -70 -167 -88 -181 -15 -13 -18 -39 -3 -39 5 0 36 12 67
27 123 56 172 66 275 59 110 -7 167 -16 174 -27 3 -5 14 -9 25 -9 10 0 28 -6
39 -12 14 -9 23 -9 30 -2 26 26 -58 242 -143 369 -85 126 -243 266 -400 354
-35 19 -77 28 -77 16z m113 -72 c18 -10 34 -21 35 -25 2 -5 10 -8 17 -8 7 0
15 -3 17 -7 2 -5 28 -27 58 -50 105 -80 205 -202 272 -333 49 -96 68 -146 68
-178 0 -24 -12 -24 -90 1 -82 26 -332 9 -378 -26 -25 -20 -24 4 4 90 26 79 29
102 29 213 -1 110 -4 134 -29 205 -15 44 -32 84 -37 90 -10 10 -12 45 -3 45 3
0 20 -8 37 -17z"/>
<path d="M780 1275 c0 -8 4 -15 8 -15 9 0 139 -124 165 -158 9 -12 17 -27 17
-32 0 -6 4 -10 9 -10 5 0 11 -8 14 -17 4 -10 17 -36 30 -58 27 -45 80 -172
104 -247 16 -48 18 -49 47 -44 29 5 84 -8 114 -27 20 -13 27 21 12 62 -24 68
-103 219 -138 264 -56 69 -135 151 -221 225 -32 27 -122 72 -144 72 -10 0 -17
-7 -17 -15z m275 -207 c77 -83 144 -181 176 -258 6 -14 17 -38 25 -54 8 -16
14 -31 14 -33 0 -2 -23 -3 -52 -1 -51 3 -52 3 -68 48 -40 108 -44 118 -77 185
-32 66 -65 127 -73 135 -3 3 -11 15 -18 28 -12 21 -11 22 5 13 10 -5 41 -33
68 -63z"/>
<path d="M1269 635 c-3 -2 -79 -9 -170 -14 -586 -35 -686 -42 -706 -46 -24 -6
-32 -38 -13 -50 26 -16 8 -46 -45 -76 -30 -17 -55 -35 -55 -40 0 -19 43 -7 93
26 52 35 90 44 102 25 17 -28 87 -60 130 -60 25 0 45 3 45 8 0 4 15 15 33 26
66 38 72 38 126 1 65 -45 110 -46 165 -5 24 18 52 30 70 30 28 0 96 -37 96
-52 0 -5 24 -8 54 -8 30 0 56 3 58 8 7 15 69 52 92 54 23 2 96 -39 96 -54 0
-5 16 -8 35 -8 19 0 35 5 35 10 0 6 -6 10 -14 10 -7 0 -34 16 -59 35 -35 27
-55 35 -87 35 -30 0 -54 -9 -91 -35 -54 -37 -75 -43 -81 -23 -4 11 48 47 125
87 14 8 35 21 44 30 10 9 35 29 56 44 20 15 37 32 37 38 0 9 -162 13 -171 4z
m46 -68 c-119 -80 -215 -118 -215 -87 0 6 -25 10 -55 10 -30 0 -55 -3 -55 -7
0 -16 -67 -53 -95 -53 -28 0 -95 37 -95 53 0 4 -21 7 -47 7 -37 0 -57 -7 -87
-30 -57 -43 -113 -37 -166 20 -11 11 -51 30 -65 30 -8 0 -15 2 -15 4 0 2 -3
11 -6 19 -4 12 14 15 98 20 109 7 363 23 563 36 66 4 158 9 205 9 l85 2 -50
-33z"/>
</g>
</svg>
